<?xml version="1.0" encoding="UTF-8" standalone="no"?>
<!DOCTYPE svg PUBLIC "-//W3C//DTD SVG 1.1//EN"
 "http://www.w3.org/Graphics/SVG/1.1/DTD/svg11.dtd">
<!-- Generated by graphviz version 2.40.1 (20161225.0304)
 -->
<!-- Title: G Pages: 1 -->
<svg width="628pt" height="417pt"
 viewBox="0.00 0.00 628.31 416.85" xmlns="http://www.w3.org/2000/svg" xmlns:xlink="http://www.w3.org/1999/xlink">
<g id="graph0" class="graph" transform="scale(1 1) rotate(0) translate(4 412.8528)">
<title>G</title><style>.edge>path:hover{stroke-width:8}</style>
<polygon fill="#ffffff" stroke="transparent" points="-4,4 -4,-412.8528 624.3147,-412.8528 624.3147,4 -4,4"/>
<!-- chessli -->
<g id="node1" class="node">
<title>chessli</title><style>.edge>path:hover{stroke-width:8}</style>
<ellipse fill="#f90606" stroke="#000000" cx="364.1537" cy="-390.8528" rx="27.8353" ry="18"/>
<text text-anchor="middle" x="364.1537" y="-388.3528" font-family="Helvetica,sans-Serif" font-size="10.00" fill="#ffffff">chessli</text>
</g>
<!-- chessli_enums -->
<g id="node2" class="node">
<title>chessli_enums</title><style>.edge>path:hover{stroke-width:8}</style>
<ellipse fill="#e72222" stroke="#000000" cx="207.1537" cy="-174.8528" rx="47.1863" ry="18"/>
<text text-anchor="middle" x="207.1537" y="-172.3528" font-family="Helvetica,sans-Serif" font-size="10.00" fill="#ffffff">chessli.enums</text>
</g>
<!-- chessli_games -->
<g id="node3" class="node">
<title>chessli_games</title><style>.edge>path:hover{stroke-width:8}</style>
<ellipse fill="#793434" stroke="#000000" cx="223.1537" cy="-21.2132" rx="47.1863" ry="18"/>
<text text-anchor="middle" x="223.1537" y="-18.7132" font-family="Helvetica,sans-Serif" font-size="10.00" fill="#ffffff">chessli.games</text>
</g>
<!-- chessli_enums&#45;&gt;chessli_games -->
<g id="edge1" class="edge">
<title>chessli_enums&#45;&gt;chessli_games</title><style>.edge>path:hover{stroke-width:8}</style>
<path fill="none" stroke="#000000" d="M209.052,-156.625C211.8065,-130.1743 216.9373,-80.9063 220.1919,-49.6535"/>
<polygon fill="#e72222" stroke="#000000" points="223.7032,-49.7261 221.2579,-39.4173 216.7409,-49.0009 223.7032,-49.7261"/>
</g>
<!-- chessli_mistakes -->
<g id="node4" class="node">
<title>chessli_mistakes</title><style>.edge>path:hover{stroke-width:8}</style>
<ellipse fill="#a13535" stroke="#000000" cx="155.1537" cy="-99.6396" rx="39.6962" ry="21.4286"/>
<text text-anchor="middle" x="155.1537" y="-102.6396" font-family="Helvetica,sans-Serif" font-size="10.00" fill="#ffffff">chessli.</text>
<text text-anchor="middle" x="155.1537" y="-91.6396" font-family="Helvetica,sans-Serif" font-size="10.00" fill="#ffffff">mistakes</text>
</g>
<!-- chessli_enums&#45;&gt;chessli_mistakes -->
<g id="edge2" class="edge">
<title>chessli_enums&#45;&gt;chessli_mistakes</title><style>.edge>path:hover{stroke-width:8}</style>
<path fill="none" stroke="#000000" d="M195.0932,-157.4083C189.0598,-148.6817 181.6047,-137.8985 174.7753,-128.0205"/>
<polygon fill="#e72222" stroke="#000000" points="177.5522,-125.8824 168.9863,-119.6472 171.7943,-129.8632 177.5522,-125.8824"/>
</g>
<!-- chessli_openings -->
<g id="node5" class="node">
<title>chessli_openings</title><style>.edge>path:hover{stroke-width:8}</style>
<ellipse fill="#a13535" stroke="#000000" cx="56.1537" cy="-99.6396" rx="39.6962" ry="21.4286"/>
<text text-anchor="middle" x="56.1537" y="-102.6396" font-family="Helvetica,sans-Serif" font-size="10.00" fill="#ffffff">chessli.</text>
<text text-anchor="middle" x="56.1537" y="-91.6396" font-family="Helvetica,sans-Serif" font-size="10.00" fill="#ffffff">openings</text>
</g>
<!-- chessli_enums&#45;&gt;chessli_openings -->
<g id="edge3" class="edge">
<title>chessli_enums&#45;&gt;chessli_openings</title><style>.edge>path:hover{stroke-width:8}</style>
<path fill="none" stroke="#000000" d="M178.3963,-160.5287C154.6189,-148.6852 120.6441,-131.7623 94.5443,-118.762"/>
<polygon fill="#e72222" stroke="#000000" points="95.8299,-115.4922 85.3183,-114.1665 92.7089,-121.758 95.8299,-115.4922"/>
</g>
<!-- chessli_utils -->
<g id="node8" class="node">
<title>chessli_utils</title><style>.edge>path:hover{stroke-width:8}</style>
<ellipse fill="#913030" stroke="#000000" cx="368.1537" cy="-99.6396" rx="40.0582" ry="18"/>
<text text-anchor="middle" x="368.1537" y="-97.1396" font-family="Helvetica,sans-Serif" font-size="10.00" fill="#ffffff">chessli.utils</text>
</g>
<!-- chessli_enums&#45;&gt;chessli_utils -->
<g id="edge4" class="edge">
<title>chessli_enums&#45;&gt;chessli_utils</title><style>.edge>path:hover{stroke-width:8}</style>
<path fill="none" stroke="#000000" d="M237.0593,-160.8821C263.6123,-148.4775 302.5161,-130.3031 331.0474,-116.9743"/>
<polygon fill="#e72222" stroke="#000000" points="332.714,-120.0589 340.2927,-112.6552 329.7512,-113.7168 332.714,-120.0589"/>
</g>
<!-- chessli_mistakes&#45;&gt;chessli_games -->
<g id="edge5" class="edge">
<title>chessli_mistakes&#45;&gt;chessli_games</title><style>.edge>path:hover{stroke-width:8}</style>
<path fill="none" stroke="#000000" d="M171.9627,-80.2533C180.8874,-69.9601 191.9567,-57.1936 201.5165,-46.168"/>
<polygon fill="#a13535" stroke="#000000" points="204.2519,-48.356 208.1585,-38.5076 198.9631,-43.7702 204.2519,-48.356"/>
</g>
<!-- chessli_openings&#45;&gt;chessli_games -->
<g id="edge6" class="edge">
<title>chessli_openings&#45;&gt;chessli_games</title><style>.edge>path:hover{stroke-width:8}</style>
<path fill="none" stroke="#000000" d="M86.01,-85.6185C113.3541,-72.7772 154.0079,-53.6854 183.9575,-39.6205"/>
<polygon fill="#a13535" stroke="#000000" points="185.7111,-42.6638 193.2749,-35.2449 182.7355,-36.3277 185.7111,-42.6638"/>
</g>
<!-- chessli_tactics -->
<g id="node6" class="node">
<title>chessli_tactics</title><style>.edge>path:hover{stroke-width:8}</style>
<ellipse fill="#813737" stroke="#000000" cx="455.1537" cy="-21.2132" rx="35.2113" ry="21.4286"/>
<text text-anchor="middle" x="455.1537" y="-24.2132" font-family="Helvetica,sans-Serif" font-size="10.00" fill="#ffffff">chessli.</text>
<text text-anchor="middle" x="455.1537" y="-13.2132" font-family="Helvetica,sans-Serif" font-size="10.00" fill="#ffffff">tactics</text>
</g>
<!-- chessli_user -->
<g id="node7" class="node">
<title>chessli_user</title><style>.edge>path:hover{stroke-width:8}</style>
<ellipse fill="#c04040" stroke="#000000" cx="543.1537" cy="-99.6396" rx="40.7358" ry="18"/>
<text text-anchor="middle" x="543.1537" y="-97.1396" font-family="Helvetica,sans-Serif" font-size="10.00" fill="#ffffff">chessli.user</text>
</g>
<!-- chessli_user&#45;&gt;chessli_tactics -->
<g id="edge7" class="edge">
<title>chessli_user&#45;&gt;chessli_tactics</title><style>.edge>path:hover{stroke-width:8}</style>
<path fill="none" stroke="#000000" d="M524.9201,-83.3896C512.7999,-72.588 496.6524,-58.1973 482.9448,-45.9809"/>
<polygon fill="#c04040" stroke="#000000" points="484.999,-43.1234 475.2048,-39.083 480.3417,-48.3492 484.999,-43.1234"/>
</g>
<!-- chessli_utils&#45;&gt;chessli_tactics -->
<g id="edge8" class="edge">
<title>chessli_utils&#45;&gt;chessli_tactics</title><style>.edge>path:hover{stroke-width:8}</style>
<path fill="none" stroke="#000000" d="M386.1802,-83.3896C398.1626,-72.588 414.1266,-58.1973 427.6784,-45.9809"/>
<polygon fill="#913030" stroke="#000000" points="430.2463,-48.3783 435.3304,-39.083 425.5594,-43.1789 430.2463,-48.3783"/>
</g>
<!-- omegaconf -->
<g id="node9" class="node">
<title>omegaconf</title><style>.edge>path:hover{stroke-width:8}</style>
<ellipse fill="#85c247" stroke="#000000" cx="325.1537" cy="-246.8528" rx="38.0276" ry="18"/>
<text text-anchor="middle" x="325.1537" y="-244.3528" font-family="Helvetica,sans-Serif" font-size="10.00" fill="#000000">omegaconf</text>
</g>
<!-- omegaconf&#45;&gt;chessli_games -->
<g id="edge9" class="edge">
<title>omegaconf&#45;&gt;chessli_games</title><style>.edge>path:hover{stroke-width:8}</style>
<path fill="none" stroke="#000000" d="M322.6321,-228.8108C320.9033,-214.2525 319.098,-193.2418 320.1537,-174.8528"/>
<path fill="none" stroke="#000000" d="M320.1537,-174.8528C322.1363,-140.3199 322.5945,-125.9619 300.1537,-99.6396"/>
<path fill="none" stroke="#000000" d="M300.1537,-99.6396C283.7705,-80.4226 263.7478,-60.1149 248.2271,-44.98"/>
<polygon fill="#85c247" stroke="#000000" points="250.6258,-42.4308 241.0051,-37.9931 245.7586,-47.4618 250.6258,-42.4308"/>
</g>
<!-- omegaconf&#45;&gt;chessli_utils -->
<g id="edge10" class="edge">
<title>omegaconf&#45;&gt;chessli_utils</title><style>.edge>path:hover{stroke-width:8}</style>
<path fill="none" stroke="#000000" d="M320.1537,-174.8528C321.2596,-155.5905 332.6521,-137.2674 344.0596,-123.5293"/>
<polygon fill="#85c247" stroke="#000000" points="346.7119,-125.8134 350.7003,-115.998 341.4614,-121.1839 346.7119,-125.8134"/>
</g>
<!-- pandas -->
<g id="node10" class="node">
<title>pandas</title><style>.edge>path:hover{stroke-width:8}</style>
<ellipse fill="#40bfc0" stroke="#000000" cx="556.1537" cy="-174.8528" rx="28.0137" ry="18"/>
<text text-anchor="middle" x="556.1537" y="-172.3528" font-family="Helvetica,sans-Serif" font-size="10.00" fill="#000000">pandas</text>
</g>
<!-- pandas&#45;&gt;chessli_tactics -->
<g id="edge11" class="edge">
<title>pandas&#45;&gt;chessli_tactics</title><style>.edge>path:hover{stroke-width:8}</style>
<path fill="none" stroke="#000000" d="M576.4471,-162.3166C596.2102,-148.3593 621.9469,-124.4774 612.1537,-99.6396"/>
<path fill="none" stroke="#000000" d="M612.1537,-99.6396C594.676,-55.3122 539.9626,-35.8755 500.0293,-27.4609"/>
<polygon fill="#40bfc0" stroke="#000000" points="500.4555,-23.9782 489.9712,-25.5048 499.1192,-30.8495 500.4555,-23.9782"/>
</g>
<!-- rich -->
<g id="node11" class="node">
<title>rich</title><style>.edge>path:hover{stroke-width:8}</style>
<ellipse fill="#7a06ef" stroke="#000000" cx="242.1537" cy="-246.8528" rx="27" ry="18"/>
<text text-anchor="middle" x="242.1537" y="-244.3528" font-family="Helvetica,sans-Serif" font-size="10.00" fill="#ffffff">rich</text>
</g>
<!-- rich&#45;&gt;chessli_games -->
<g id="edge12" class="edge">
<title>rich&#45;&gt;chessli_games</title><style>.edge>path:hover{stroke-width:8}</style>
<path fill="none" stroke="#000000" d="M252.1477,-229.9268C260.5307,-215.4861 272.626,-194.0698 282.1537,-174.8528"/>
<path fill="none" stroke="#000000" d="M282.1537,-174.8528C297.5184,-143.8629 253.3228,-133.0831 262.1537,-99.6396"/>
<path fill="none" stroke="#000000" d="M262.1537,-99.6396C267.119,-80.8355 257.3884,-61.2451 246.4068,-46.3476"/>
<polygon fill="#7a06ef" stroke="#000000" points="248.8607,-43.8099 239.8981,-38.1599 243.3811,-48.1659 248.8607,-43.8099"/>
</g>
<!-- rich&#45;&gt;chessli_mistakes -->
<g id="edge13" class="edge">
<title>rich&#45;&gt;chessli_mistakes</title><style>.edge>path:hover{stroke-width:8}</style>
<path fill="none" stroke="#000000" d="M220.9705,-235.4619C189.0413,-217.9536 132.263,-185.3515 132.1537,-174.8528"/>
</g>
<!-- rich&#45;&gt;chessli_openings -->
<g id="edge14" class="edge">
<title>rich&#45;&gt;chessli_openings</title><style>.edge>path:hover{stroke-width:8}</style>
<path fill="none" stroke="#000000" d="M220.5788,-235.7353C215.8571,-233.395 210.8625,-230.9895 206.1537,-228.8528 155.8308,-206.0179 130.2578,-216.6896 94.1537,-174.8528"/>
</g>
<!-- rich&#45;&gt;chessli_tactics -->
<g id="edge15" class="edge">
<title>rich&#45;&gt;chessli_tactics</title><style>.edge>path:hover{stroke-width:8}</style>
<path fill="none" stroke="#000000" d="M262.1537,-99.6396C270.2379,-69.0239 357.5568,-43.5986 411.9367,-30.5868"/>
<polygon fill="#7a06ef" stroke="#000000" points="412.7432,-33.9927 421.6807,-28.3032 411.1459,-27.1773 412.7432,-33.9927"/>
</g>
<!-- rich&#45;&gt;chessli_utils -->
<g id="edge16" class="edge">
<title>rich&#45;&gt;chessli_utils</title><style>.edge>path:hover{stroke-width:8}</style>
<path fill="none" stroke="#000000" d="M282.1537,-174.8528C293.6145,-151.7369 315.6322,-132.6934 334.5196,-119.5519"/>
<polygon fill="#7a06ef" stroke="#000000" points="336.5563,-122.4005 342.9281,-113.9358 332.6684,-116.5795 336.5563,-122.4005"/>
</g>
<!-- rich_console -->
<g id="node12" class="node">
<title>rich_console</title><style>.edge>path:hover{stroke-width:8}</style>
<ellipse fill="#7a06ef" stroke="#000000" cx="450.1537" cy="-390.8528" rx="40.7358" ry="18"/>
<text text-anchor="middle" x="450.1537" y="-388.3528" font-family="Helvetica,sans-Serif" font-size="10.00" fill="#ffffff">rich.console</text>
</g>
<!-- rich_console&#45;&gt;chessli_games -->
<g id="edge17" class="edge">
<title>rich_console&#45;&gt;chessli_games</title><style>.edge>path:hover{stroke-width:8}</style>
<path fill="none" stroke="#000000" d="M418.8273,-379.2148C412.9634,-377.0734 406.8787,-374.8762 401.1537,-372.8528 330.7881,-347.9839 296.6,-369.8958 242.1537,-318.8528"/>
<path fill="none" stroke="#000000" d="M242.1537,-318.8528C183.1875,-263.5724 110.5189,-319.5318 75.1537,-246.8528"/>
<path fill="none" stroke="#000000" d="M75.1537,-246.8528C60.673,-217.0935 67.2306,-206.0395 56.1537,-174.8528"/>
<path fill="none" stroke="#000000" d="M56.1537,-174.8528C45.3069,-144.314 18.8259,-151.0858 7.1537,-120.8528 .3623,-103.2621 -4.3467,-93.3695 7.1537,-78.4264 26.6836,-53.0501 110.8513,-36.61 168.1684,-28.1337"/>
<polygon fill="#7a06ef" stroke="#000000" points="168.7829,-31.5814 178.1825,-26.6928 167.7859,-24.6528 168.7829,-31.5814"/>
</g>
<!-- rich_console&#45;&gt;chessli_mistakes -->
<g id="edge18" class="edge">
<title>rich_console&#45;&gt;chessli_mistakes</title><style>.edge>path:hover{stroke-width:8}</style>
<path fill="none" stroke="#000000" d="M75.1537,-246.8528C57.2958,-210.153 132.5784,-215.6645 132.1537,-174.8528"/>
<path fill="none" stroke="#000000" d="M132.1537,-174.8528C131.9936,-159.4707 136.4285,-143.0614 141.4453,-129.5077"/>
<polygon fill="#7a06ef" stroke="#000000" points="144.7041,-130.7844 145.1436,-120.1987 138.1987,-128.1998 144.7041,-130.7844"/>
</g>
<!-- rich_console&#45;&gt;chessli_openings -->
<g id="edge19" class="edge">
<title>rich_console&#45;&gt;chessli_openings</title><style>.edge>path:hover{stroke-width:8}</style>
<path fill="none" stroke="#000000" d="M56.1537,-174.8528C51.2432,-161.0273 50.6431,-144.8491 51.5158,-131.0467"/>
<polygon fill="#7a06ef" stroke="#000000" points="55.0063,-131.3085 52.4231,-121.0334 48.0349,-130.6767 55.0063,-131.3085"/>
</g>
<!-- rich_console&#45;&gt;chessli_tactics -->
<g id="edge20" class="edge">
<title>rich_console&#45;&gt;chessli_tactics</title><style>.edge>path:hover{stroke-width:8}</style>
<path fill="none" stroke="#000000" d="M612.1537,-246.8528C586.5001,-186.6637 636.1531,-160.5072 612.1537,-99.6396"/>
</g>
<!-- rich_console&#45;&gt;chessli_utils -->
<g id="edge21" class="edge">
<title>rich_console&#45;&gt;chessli_utils</title><style>.edge>path:hover{stroke-width:8}</style>
<path fill="none" stroke="#000000" d="M612.1537,-318.8528C620.7032,-288.0161 624.7006,-276.2905 612.1537,-246.8528"/>
<path fill="none" stroke="#000000" d="M612.1537,-246.8528C583.1591,-178.8252 515.4464,-226.1201 462.1537,-174.8528"/>
</g>
<!-- rich_console&#45;&gt;rich -->
<g id="edge22" class="edge">
<title>rich_console&#45;&gt;rich</title><style>.edge>path:hover{stroke-width:8}</style>
<path fill="none" stroke="#000000" d="M242.1537,-318.8528C230.629,-307.6867 230.6628,-289.6137 233.5607,-274.369"/>
<polygon fill="#7a06ef" stroke="#000000" points="237.0261,-274.9231 235.9178,-264.3864 230.2134,-273.3145 237.0261,-274.9231"/>
</g>
<!-- rich_markdown -->
<g id="node13" class="node">
<title>rich_markdown</title><style>.edge>path:hover{stroke-width:8}</style>
<ellipse fill="#753ab0" stroke="#000000" cx="150.1537" cy="-246.8528" rx="47.1863" ry="18"/>
<text text-anchor="middle" x="150.1537" y="-244.3528" font-family="Helvetica,sans-Serif" font-size="10.00" fill="#ffffff">rich.markdown</text>
</g>
<!-- rich_console&#45;&gt;rich_markdown -->
<g id="edge23" class="edge">
<title>rich_console&#45;&gt;rich_markdown</title><style>.edge>path:hover{stroke-width:8}</style>
<path fill="none" stroke="#000000" d="M242.1537,-318.8528C223.206,-300.4946 199.7608,-282.2035 181.2805,-268.651"/>
<polygon fill="#7a06ef" stroke="#000000" points="183.3238,-265.8093 173.1729,-262.7744 179.2156,-271.4771 183.3238,-265.8093"/>
</g>
<!-- rich_progress -->
<g id="node14" class="node">
<title>rich_progress</title><style>.edge>path:hover{stroke-width:8}</style>
<ellipse fill="#7038a8" stroke="#000000" cx="391.1537" cy="-174.8528" rx="42.9448" ry="18"/>
<text text-anchor="middle" x="391.1537" y="-172.3528" font-family="Helvetica,sans-Serif" font-size="10.00" fill="#ffffff">rich.progress</text>
</g>
<!-- rich_console&#45;&gt;rich_progress -->
<g id="edge24" class="edge">
<title>rich_console&#45;&gt;rich_progress</title><style>.edge>path:hover{stroke-width:8}</style>
<path fill="none" stroke="#000000" d="M242.1537,-318.8528C197.2207,-275.3178 332.2051,-313.0024 372.1537,-264.8528 386.3496,-247.7427 390.7245,-222.6254 391.7618,-203.2701"/>
<polygon fill="#7a06ef" stroke="#000000" points="395.2625,-203.289 392.036,-193.1974 388.2651,-203.0985 395.2625,-203.289"/>
</g>
<!-- rich_table -->
<g id="node15" class="node">
<title>rich_table</title><style>.edge>path:hover{stroke-width:8}</style>
<ellipse fill="#7016ca" stroke="#000000" cx="511.1537" cy="-246.8528" rx="32.9303" ry="18"/>
<text text-anchor="middle" x="511.1537" y="-244.3528" font-family="Helvetica,sans-Serif" font-size="10.00" fill="#ffffff">rich.table</text>
</g>
<!-- rich_console&#45;&gt;rich_table -->
<g id="edge25" class="edge">
<title>rich_console&#45;&gt;rich_table</title><style>.edge>path:hover{stroke-width:8}</style>
<path fill="none" stroke="#000000" d="M485.607,-381.8C531.0608,-369.1964 604.9175,-344.9526 612.1537,-318.8528"/>
<path fill="none" stroke="#000000" d="M612.1537,-318.8528C620.9653,-287.0709 583.0833,-267.5467 551.2243,-256.9888"/>
<polygon fill="#7a06ef" stroke="#000000" points="552.1769,-253.6198 541.5887,-253.9965 550.1008,-260.3049 552.1769,-253.6198"/>
</g>
<!-- rich_text -->
<g id="node16" class="node">
<title>rich_text</title><style>.edge>path:hover{stroke-width:8}</style>
<ellipse fill="#7a18dd" stroke="#000000" cx="450.1537" cy="-318.8528" rx="30.7213" ry="18"/>
<text text-anchor="middle" x="450.1537" y="-316.3528" font-family="Helvetica,sans-Serif" font-size="10.00" fill="#ffffff">rich.text</text>
</g>
<!-- rich_console&#45;&gt;rich_text -->
<g id="edge26" class="edge">
<title>rich_console&#45;&gt;rich_text</title><style>.edge>path:hover{stroke-width:8}</style>
<path fill="none" stroke="#000000" d="M450.1537,-362.4254C450.1537,-357.532 450.1537,-352.4432 450.1537,-347.543"/>
<polygon fill="#7a06ef" stroke="#000000" points="446.6538,-362.6841 450.1537,-372.6842 453.6538,-362.6842 446.6538,-362.6841"/>
<polygon fill="#7a06ef" stroke="#000000" points="453.6538,-347.266 450.1537,-337.2661 446.6538,-347.2661 453.6538,-347.266"/>
</g>
<!-- rich_markdown&#45;&gt;chessli_mistakes -->
<g id="edge27" class="edge">
<title>rich_markdown&#45;&gt;chessli_mistakes</title><style>.edge>path:hover{stroke-width:8}</style>
<path fill="none" stroke="#000000" d="M143.1481,-228.8156C138.1765,-214.4367 132.3495,-193.6635 132.1537,-174.8528"/>
</g>
<!-- rich_markdown&#45;&gt;chessli_openings -->
<g id="edge28" class="edge">
<title>rich_markdown&#45;&gt;chessli_openings</title><style>.edge>path:hover{stroke-width:8}</style>
<path fill="none" stroke="#000000" d="M137.2835,-229.2922C126.2315,-214.4644 109.6728,-192.836 94.1537,-174.8528"/>
<path fill="none" stroke="#000000" d="M94.1537,-174.8528C82.8931,-161.8042 73.9488,-144.8363 67.5739,-130.3201"/>
<polygon fill="#753ab0" stroke="#000000" points="70.6568,-128.6197 63.574,-120.7404 64.1973,-131.3169 70.6568,-128.6197"/>
</g>
<!-- rich_progress&#45;&gt;chessli_games -->
<g id="edge29" class="edge">
<title>rich_progress&#45;&gt;chessli_games</title><style>.edge>path:hover{stroke-width:8}</style>
<path fill="none" stroke="#000000" d="M368.199,-159.3893C353.5915,-149.1328 334.588,-135.0007 319.1537,-120.8528 309.8236,-112.3003 308.3651,-109.2713 300.1537,-99.6396"/>
</g>
<!-- rich_progress&#45;&gt;chessli_tactics -->
<g id="edge30" class="edge">
<title>rich_progress&#45;&gt;chessli_tactics</title><style>.edge>path:hover{stroke-width:8}</style>
<path fill="none" stroke="#000000" d="M400.2038,-157.0276C405.3872,-146.5858 411.8872,-133.0858 417.1537,-120.8528 427.049,-97.8683 437.0883,-71.3784 444.3611,-51.4921"/>
<polygon fill="#7038a8" stroke="#000000" points="447.6747,-52.621 447.7964,-42.0269 441.0947,-50.2328 447.6747,-52.621"/>
</g>
<!-- rich_table&#45;&gt;chessli_games -->
<g id="edge31" class="edge">
<title>rich_table&#45;&gt;chessli_games</title><style>.edge>path:hover{stroke-width:8}</style>
<path fill="none" stroke="#000000" d="M511.3643,-228.8264C510.7785,-198.7008 505.4714,-137.688 474.1537,-99.6396"/>
<path fill="none" stroke="#000000" d="M474.1537,-99.6396C448.0398,-69.7288 341.5316,-44.2571 275.9363,-31.0013"/>
<polygon fill="#7016ca" stroke="#000000" points="276.2694,-27.499 265.7786,-28.9799 274.9031,-34.3644 276.2694,-27.499"/>
</g>
<!-- rich_table&#45;&gt;chessli_tactics -->
<g id="edge32" class="edge">
<title>rich_table&#45;&gt;chessli_tactics</title><style>.edge>path:hover{stroke-width:8}</style>
<path fill="none" stroke="#000000" d="M474.1537,-99.6396C463.4476,-86.6325 458.6072,-68.5408 456.4841,-53.011"/>
<polygon fill="#7016ca" stroke="#000000" points="459.9334,-52.3435 455.4097,-42.763 452.9715,-53.0734 459.9334,-52.3435"/>
</g>
<!-- rich_table&#45;&gt;chessli_utils -->
<g id="edge33" class="edge">
<title>rich_table&#45;&gt;chessli_utils</title><style>.edge>path:hover{stroke-width:8}</style>
<path fill="none" stroke="#000000" d="M502.0078,-229.3589C493.2579,-213.772 478.9345,-190.9958 462.1537,-174.8528"/>
</g>
<!-- rich_table&#45;&gt;rich_progress -->
<g id="edge34" class="edge">
<title>rich_table&#45;&gt;rich_progress</title><style>.edge>path:hover{stroke-width:8}</style>
<path fill="none" stroke="#000000" d="M488.8639,-233.4789C470.7969,-222.6387 445.0585,-207.1957 424.5332,-194.8805"/>
<polygon fill="#7016ca" stroke="#000000" points="426.181,-191.7876 415.8053,-189.6438 422.5795,-197.79 426.181,-191.7876"/>
</g>
<!-- rich_text&#45;&gt;chessli_utils -->
<g id="edge35" class="edge">
<title>rich_text&#45;&gt;chessli_utils</title><style>.edge>path:hover{stroke-width:8}</style>
<path fill="none" stroke="#000000" d="M450.1537,-246.8528C445.0575,-214.8142 485.5332,-197.3438 462.1537,-174.8528"/>
<path fill="none" stroke="#000000" d="M462.1537,-174.8528C453.7707,-166.7884 452.0128,-164.3911 443.1537,-156.8528 428.6933,-144.5483 411.948,-131.6542 397.9532,-121.2283"/>
<polygon fill="#7a18dd" stroke="#000000" points="399.7619,-118.2129 389.6399,-115.083 395.6008,-123.8419 399.7619,-118.2129"/>
</g>
<!-- rich_text&#45;&gt;rich_markdown -->
<g id="edge37" class="edge">
<title>rich_text&#45;&gt;rich_markdown</title><style>.edge>path:hover{stroke-width:8}</style>
<path fill="none" stroke="#000000" d="M421.0191,-313.3189C375.0469,-304.3822 283.0006,-285.6582 206.1537,-264.8528 202.5928,-263.8887 198.9217,-262.8383 195.2425,-261.7451"/>
<polygon fill="#7a18dd" stroke="#000000" points="196.1409,-258.3599 185.5545,-258.7814 194.0931,-265.0537 196.1409,-258.3599"/>
</g>
<!-- rich_text&#45;&gt;rich_progress -->
<g id="edge38" class="edge">
<title>rich_text&#45;&gt;rich_progress</title><style>.edge>path:hover{stroke-width:8}</style>
<path fill="none" stroke="#000000" d="M451.7236,-300.6791C452.6118,-286.0464 453.0402,-264.9997 450.1537,-246.8528"/>
<path fill="none" stroke="#000000" d="M450.1537,-246.8528C447.0765,-227.5074 433.6865,-210.3401 420.4393,-197.6253"/>
<polygon fill="#7a18dd" stroke="#000000" points="422.5034,-194.7734 412.7351,-190.6707 417.8128,-199.9695 422.5034,-194.7734"/>
</g>
<!-- rich_text&#45;&gt;rich_table -->
<g id="edge39" class="edge">
<title>rich_text&#45;&gt;rich_table</title><style>.edge>path:hover{stroke-width:8}</style>
<path fill="none" stroke="#000000" d="M463.9956,-302.5149C471.7618,-293.3481 481.6068,-281.7279 490.2902,-271.4785"/>
<polygon fill="#7a18dd" stroke="#000000" points="493.1496,-273.5181 496.9433,-263.6257 487.8087,-268.9931 493.1496,-273.5181"/>
</g>
</g>
</svg>
